<svg width="30" height="31" viewBox="0 0 30 31" fill="none" xmlns="http://www.w3.org/2000/svg">
<path d="M13.9918 9.04743C13.9918 9.04743 13.3064 9.69367 13.2946 11.5854V13.5633H10.8115V16.3597H13.2946V23.5858H16.1577V16.3597H18.6212L18.9659 13.5633H16.1577V11.5854C16.1655 11.3661 16.2634 10.3908 17.4149 10.4104H19.0912V7.77454H16.5807C16.5807 7.77454 15.0023 7.73537 13.9957 9.04351L13.9918 9.04743Z" fill="#617591"/>
<path d="M25.3421 24.9569C24.9308 25.0783 24.7037 25.5366 24.5078 25.8891C24.3316 26.2102 23.9908 26.5862 23.9908 26.9622C23.9908 27.0836 24.1162 27.1816 24.2337 27.1463C24.5979 27.0445 24.8682 26.6176 25.1306 26.363C25.4204 26.081 25.8081 25.7363 25.816 25.3133C25.816 25.0744 25.5731 24.8864 25.3382 24.953L25.3421 24.9569Z" fill="#617591"/>
<path d="M29.7326 16.7277C31.5107 9.54464 24.0888 2.27936 17.3366 1.00255C13.6236 0.301483 9.76187 0.967304 6.59726 3.03135C3.87914 4.79773 1.09445 7.94667 0.753704 11.2719C0.745871 11.3463 0.76937 11.405 0.800703 11.4559C-1.34167 16.9509 0.992616 23.8598 5.68861 27.3495C10.3454 30.8078 18.0024 32.018 22.9569 28.4069C23.3759 28.1015 23.0274 27.4944 22.5495 27.7176C22.3694 27.7999 22.1892 27.8821 22.013 27.9644C21.9229 27.8077 21.7349 27.7059 21.4999 27.8195C18.2021 29.3822 13.6236 28.591 10.365 27.4317C9.99686 27.3025 9.7462 27.886 10.0987 28.0584C11.8337 28.9004 13.7215 29.3939 15.6563 29.4958C16.4632 29.5388 17.2739 29.5075 18.0807 29.4253C16.8509 29.7347 15.5819 29.8757 14.215 29.7543C11.4382 29.5036 8.98638 28.4696 6.69126 26.9343C4.00056 25.1366 2.16368 22.9472 1.29419 19.8139C0.538291 17.0997 0.499125 14.2406 1.33336 11.5539C1.36861 11.5264 1.40386 11.4951 1.42344 11.452C1.56836 11.1779 1.70935 10.9076 1.85035 10.6413C1.02395 12.768 0.78112 15.1258 1.1532 17.3739C1.85427 21.6391 4.25905 24.4551 7.79574 26.7698C8.21873 27.0479 8.64564 26.3351 8.19523 26.0962C5.05412 24.4316 2.56317 20.6443 2.03443 17.182C1.45086 13.3594 2.84125 9.7718 5.11679 6.72861C5.31262 6.47012 4.90137 6.1842 4.67813 6.39178C4.30605 6.74036 3.96139 7.11635 3.64023 7.51193C4.16114 6.72861 4.74471 5.99229 5.44578 5.30689C5.2852 5.57713 5.5437 5.98446 5.86486 5.77688C6.69126 5.24814 7.49024 4.68415 8.34798 4.19849C8.95896 3.85383 9.60912 3.57967 10.2358 3.26243C10.3376 3.29376 10.4551 3.30159 10.5922 3.26634C15.1433 2.11095 19.6748 2.60836 23.2193 5.93354C23.3564 6.06279 23.5248 6.00404 23.6109 5.88654C23.5796 6.05104 23.6697 6.24687 23.889 6.24687C24.2728 6.24687 24.2728 5.65546 23.889 5.65546C23.7793 5.65546 23.7049 5.70246 23.6579 5.77296C23.6658 5.70638 23.6462 5.63588 23.5874 5.5693C22.4046 4.31991 20.9124 3.27809 19.2714 2.54961C24.0653 4.30424 28.0523 8.59682 28.6281 13.5513C28.2717 11.969 27.6098 10.4376 26.6424 9.05507C26.3956 8.70649 25.8512 9.00807 26.0588 9.39189C27.3474 11.7497 27.9544 14.3268 28.0406 16.9979C28.1307 19.7865 27.0458 22.1678 25.5614 24.4669C25.4087 24.7019 25.7611 24.9878 25.9531 24.7919C26.0431 24.8389 26.1528 24.8389 26.2468 24.7528C28.3892 22.7553 29.9558 19.763 29.7443 16.7668C29.7443 16.7512 29.7365 16.7355 29.7326 16.7198V16.7277Z" fill="#617591"/>
<path d="M8.92367 27.1268C8.82967 27.3461 8.955 27.5654 9.17433 27.6398C9.33491 27.6947 9.47982 27.7495 9.64824 27.773C9.93806 27.8083 10.0477 27.4127 9.87148 27.2364C9.7579 27.1189 9.60515 27.0367 9.46807 26.9466C9.27616 26.8174 9.00591 26.9309 8.91975 27.1307L8.92367 27.1268Z" fill="#617591"/>
</svg>
