<svg width="30" height="30" viewBox="0 0 30 30" fill="none" xmlns="http://www.w3.org/2000/svg">
<path d="M25.3421 24.2235C24.9308 24.3449 24.7037 24.8032 24.5078 25.1557C24.3316 25.4768 23.9908 25.8528 23.9908 26.2288C23.9908 26.3502 24.1162 26.4482 24.2337 26.4129C24.5979 26.3111 24.8682 25.8842 25.1306 25.6296C25.4204 25.3476 25.8081 25.0029 25.816 24.5799C25.816 24.341 25.5731 24.153 25.3382 24.2196L25.3421 24.2235Z" fill="#617591"/>
<path d="M29.7326 15.9943C31.5107 8.81124 24.0888 1.54596 17.3366 0.269155C13.6236 -0.431915 9.76187 0.233906 6.59726 2.29795C3.87915 4.06825 1.09836 7.21327 0.753703 10.5424C0.745869 10.6168 0.76937 10.6755 0.800703 10.7265C-1.34167 16.2214 0.992617 23.1303 5.68861 26.62C10.3454 30.0783 18.0024 31.2886 22.9529 27.6775C23.372 27.372 23.0234 26.7649 22.5456 26.9881C22.3655 27.0704 22.1853 27.1526 22.009 27.2349C21.919 27.0782 21.731 26.9764 21.496 27.09C18.1982 28.6527 13.6197 27.8615 10.3611 26.7022C9.99294 26.573 9.74228 27.1566 10.0948 27.3289C11.8298 28.171 13.7176 28.6644 15.6524 28.7663C16.4592 28.8094 17.27 28.778 18.0768 28.6958C16.847 29.0052 15.578 29.1462 14.2111 29.0248C11.4342 28.7741 8.98246 27.7401 6.68734 26.2048C3.99664 24.4071 2.15976 22.2177 1.29028 19.0845C0.534375 16.3703 0.495208 13.5112 1.32944 10.8244C1.36469 10.797 1.39994 10.7656 1.41952 10.7225C1.56444 10.4484 1.70543 10.1781 1.84643 9.9118C1.02003 12.0385 0.777203 14.3963 1.14928 16.6444C1.85035 20.9096 4.25514 23.7256 7.79182 26.0403C8.21481 26.3184 8.64172 25.6056 8.19131 25.3667C5.05021 23.7021 2.55925 19.9148 2.03051 16.4525C1.44694 12.6299 2.83733 9.04232 5.11287 5.99913C5.3087 5.74064 4.89746 5.45472 4.67421 5.6623C4.30214 6.01088 3.95748 6.38687 3.63631 6.78245C4.15722 5.99913 4.74079 5.26281 5.44186 4.57741C5.28128 4.84765 5.53978 5.25498 5.86094 5.0474C6.68734 4.51866 7.48633 3.95467 8.34406 3.46901C8.95505 3.12435 9.6052 2.85019 10.2319 2.53294C10.3337 2.56428 10.4512 2.57211 10.5883 2.53686C15.1393 1.38147 19.6708 1.87887 23.2154 5.20406C23.3524 5.33331 23.5209 5.27456 23.607 5.15706C23.5757 5.32156 23.6658 5.51739 23.8851 5.51739C24.2689 5.51739 24.2689 4.92598 23.8851 4.92598C23.7754 4.92598 23.701 4.97298 23.654 5.04348C23.6619 4.9769 23.6423 4.9064 23.5835 4.83982C22.4007 3.59042 20.9085 2.54861 19.2674 1.82012C24.0613 3.57476 28.0484 7.86734 28.6242 12.8218C28.2678 11.2395 27.6059 9.70814 26.6385 8.32559C26.3917 7.97701 25.8473 8.27859 26.0549 8.66241C27.3434 11.0202 27.9505 13.5973 28.0367 16.2684C28.1268 19.057 27.0419 21.4383 25.5575 23.7374C25.4047 23.9724 25.7572 24.2583 25.9491 24.0625C26.0392 24.1095 26.1489 24.1094 26.2429 24.0233C28.3853 22.0258 29.9519 19.0335 29.7404 16.0374C29.7404 16.0217 29.7326 16.006 29.7286 15.9904L29.7326 15.9943Z" fill="#617591"/>
<path d="M8.92367 26.3934C8.82967 26.6127 8.955 26.832 9.17433 26.9064C9.33491 26.9613 9.47982 27.0161 9.64824 27.0396C9.93807 27.0749 10.0477 26.6793 9.87148 26.503C9.7579 26.3855 9.60515 26.3033 9.46807 26.2132C9.27616 26.084 9.00592 26.1975 8.91975 26.3973L8.92367 26.3934Z" fill="#617591"/>
<path d="M12.0374 19.6955L12.245 18.2228C11.916 18.0819 11.5322 17.9409 11.1719 17.7568C9.61699 16.9735 8.55559 15.7554 8.10518 14.0634C7.74094 12.6926 7.97594 11.3884 8.76709 10.2095C8.9355 9.95884 8.9825 9.7121 8.99033 9.4301C9.006 8.86611 9.00992 8.30213 9.04908 7.73814C9.0765 7.33081 9.17049 6.93523 9.43682 6.59841C9.62482 6.3595 9.85198 6.23025 10.1614 6.21066C10.4904 6.19108 10.7802 6.26158 11.07 6.42999C11.5283 6.69632 12.0022 6.93523 12.4722 7.18198C12.7503 7.32689 13.0518 7.31906 13.3456 7.25639C14.4109 7.0214 15.488 6.95873 16.5689 7.10757C16.9919 7.16631 17.4032 7.2799 17.8262 7.33473C18.0298 7.36214 18.2687 7.36214 18.4489 7.27989C19.0873 6.99398 19.71 6.68457 20.3289 6.35558C20.6383 6.19108 20.9555 6.18716 21.2728 6.23025C21.5195 6.26158 21.6958 6.43391 21.825 6.65324C22.0404 7.01748 22.0718 7.41697 22.0404 7.82038C21.9895 8.40004 21.9073 8.97578 21.8368 9.55544C21.8133 9.7356 21.8368 9.88834 21.9582 10.0411C22.4086 10.6247 22.6906 11.2983 22.8159 12.0151C22.9804 12.9433 22.8864 13.8598 22.5574 14.7488C22.2088 15.681 21.6527 16.4643 20.8733 17.087C20.368 17.4904 19.804 17.792 19.2048 18.0231C19.1147 18.0584 19.0246 18.0897 18.9581 18.1132C19.0207 18.4578 19.1304 18.7829 19.1382 19.1119C19.1617 20.3652 19.1578 21.6185 19.15 22.8679C19.15 23.3262 18.7505 23.6787 18.3079 23.6591C17.8497 23.6395 17.5011 23.2909 17.5011 22.8288C17.4972 21.7713 17.4815 20.7138 17.505 19.6563C17.5168 19.1041 17.3758 18.6145 17.0272 18.1994C16.5572 17.6432 16.8862 16.8795 17.5872 16.758C18.3236 16.6327 19.0168 16.3546 19.6356 15.9199C20.4777 15.3285 20.979 14.5217 21.167 13.5112C21.3472 12.536 21.1161 11.6626 20.5208 10.8832C20.2349 10.5111 20.1252 10.092 20.1722 9.62593C20.2192 9.18336 20.2623 8.73687 20.3093 8.27079C20.2505 8.29429 20.2035 8.30996 20.1605 8.32954C19.7688 8.5097 19.3771 8.6977 18.9816 8.87003C18.4998 9.08153 17.9907 9.09719 17.4972 8.96795C16.1773 8.6272 14.8652 8.63503 13.5375 8.90528C13.044 9.00711 12.5192 9.03061 12.0335 8.79562C11.591 8.58412 11.1484 8.37654 10.6627 8.14155C10.6627 8.51754 10.6745 8.88961 10.6627 9.26169C10.6471 9.63377 10.6235 10.0098 10.5687 10.3818C10.5452 10.5385 10.4473 10.6952 10.3572 10.8322C10.1066 11.2043 9.87548 11.5803 9.75015 12.019C9.49557 12.912 9.65223 13.7501 10.0909 14.5413C10.651 15.5478 11.5204 16.1823 12.5936 16.5465C12.9774 16.6758 13.3769 16.7698 13.7725 16.852C14.4422 16.9891 14.7164 17.7059 14.2895 18.2424C14.2111 18.3403 14.1289 18.4304 14.0545 18.5283C13.8626 18.7868 13.7647 19.0649 13.7686 19.3939C13.7803 20.5297 13.7725 21.6655 13.7686 22.8013C13.7686 23.1773 13.5297 23.5063 13.1889 23.616C12.8521 23.7217 12.4722 23.616 12.2764 23.3183C12.1745 23.1656 12.1119 22.9619 12.104 22.7778C12.0805 22.3196 12.0962 21.8574 12.0962 21.3718C11.9043 21.3718 11.728 21.3718 11.5479 21.3718C10.741 21.3718 10.04 21.1211 9.42899 20.5689C8.94334 20.1263 8.54776 19.6211 8.19918 19.0727C8.08169 18.8887 7.95244 18.7673 7.72527 18.7163C7.29053 18.6184 7.02812 18.168 7.13387 17.745C7.25137 17.2711 7.66261 17.0244 8.12868 17.1066C8.75925 17.2163 9.21749 17.5531 9.54649 18.0897C9.84806 18.5753 10.1653 19.0571 10.6392 19.39C10.839 19.531 11.0818 19.6328 11.3207 19.6837C11.5635 19.7347 11.822 19.6955 12.0414 19.6955H12.0374Z" fill="#617591"/>
</svg>
