<svg width="30" height="31" viewBox="0 0 30 31" fill="none" xmlns="http://www.w3.org/2000/svg">
<path d="M18.1788 7.50684H12.112C9.42128 7.50684 7.24365 9.68838 7.24365 12.3752V18.442C7.24365 21.1327 9.4252 23.3103 12.112 23.3103H18.1788C20.8695 23.3103 23.0471 21.1287 23.0471 18.442V12.3752C23.0471 9.68446 20.8656 7.50684 18.1788 7.50684V7.50684ZM21.5314 17.8584C21.5314 20.0321 19.7689 21.7946 17.5952 21.7946H12.6916C10.5179 21.7946 8.75546 20.0321 8.75546 17.8584V12.9548C8.75546 10.7811 10.5179 9.01864 12.6916 9.01864H17.5952C19.7689 9.01864 21.5314 10.7811 21.5314 12.9548V17.8584Z" fill="#617591"/>
<path d="M15.3588 11.2705C13.0597 11.2705 11.1954 13.1348 11.1954 15.4338C11.1954 17.7329 13.0597 19.5972 15.3588 19.5972C17.6578 19.5972 19.5221 17.7329 19.5221 15.4338C19.5221 13.1348 17.6578 11.2705 15.3588 11.2705ZM15.3588 17.9365C13.9762 17.9365 12.8522 16.8164 12.8522 15.4338C12.8522 14.0513 13.9723 12.9272 15.3588 12.9272C16.7452 12.9272 17.8615 14.0474 17.8615 15.4338C17.8615 16.8203 16.7413 17.9365 15.3588 17.9365Z" fill="#617591"/>
<path d="M19.2323 10.1465C18.6487 10.1465 18.1748 10.6204 18.1748 11.204C18.1748 11.7875 18.6487 12.2614 19.2323 12.2614C19.8159 12.2614 20.2898 11.7875 20.2898 11.204C20.2898 10.6204 19.8159 10.1465 19.2323 10.1465Z" fill="#617591"/>
<path d="M25.3382 24.6864C24.9269 24.8078 24.6998 25.2661 24.5039 25.6186C24.3277 25.9397 23.9869 26.3157 23.9869 26.6917C23.9869 26.8131 24.1123 26.911 24.2298 26.8758C24.594 26.774 24.8643 26.3471 25.1267 26.0925C25.4165 25.8105 25.8042 25.4658 25.8121 25.0428C25.8121 24.8039 25.5692 24.6159 25.3342 24.6825L25.3382 24.6864Z" fill="#617591"/>
<path d="M29.7326 16.4572C31.5107 9.27413 24.0888 2.00885 17.3366 0.732045C13.6236 0.0309756 9.76186 0.696796 6.59726 2.76084C3.87914 4.53114 1.09837 7.67616 0.753705 11.0053C0.745872 11.0797 0.769369 11.1384 0.800702 11.1893C-1.34167 16.6843 0.992619 23.5932 5.68861 27.0829C10.3454 30.5412 18.0024 31.7514 22.9529 28.1404C23.372 27.8349 23.0234 27.2278 22.5456 27.451C22.3655 27.5333 22.1853 27.6155 22.009 27.6978C21.919 27.5411 21.731 27.4393 21.496 27.5529C18.1982 29.1156 13.6197 28.3244 10.3611 27.1651C9.99294 27.0359 9.74228 27.6194 10.0948 27.7918C11.8298 28.6338 13.7176 29.1273 15.6524 29.2292C16.4592 29.2722 17.27 29.2409 18.0768 29.1587C16.847 29.4681 15.578 29.6091 14.2111 29.4877C11.4342 29.237 8.98246 28.203 6.68734 26.6677C3.99664 24.87 2.15976 22.6806 1.29028 19.5473C0.534374 16.8332 0.49521 13.974 1.32944 11.2873C1.36469 11.2598 1.39994 11.2285 1.41952 11.1854C1.56444 10.9113 1.70543 10.641 1.84643 10.3747C1.02003 12.5014 0.777202 14.8592 1.14928 17.1073C1.85035 21.3725 4.25514 24.1885 7.79182 26.5032C8.21481 26.7813 8.64172 26.0685 8.19131 25.8296C5.05021 24.165 2.55925 20.3777 2.03051 16.9154C1.44694 13.0928 2.83733 9.50521 5.11287 6.46202C5.3087 6.20352 4.89746 5.91761 4.67421 6.12519C4.30213 6.47377 3.95748 6.84976 3.63632 7.24534C4.15722 6.46202 4.7408 5.7257 5.44187 5.0403C5.28129 5.31054 5.53978 5.71787 5.86094 5.51029C6.68734 4.98155 7.48633 4.41756 8.34406 3.9319C8.95505 3.58724 9.6052 3.31308 10.2319 2.99584C10.3337 3.02717 10.4512 3.035 10.5883 2.99975C15.1393 1.84436 19.6708 2.34176 23.2154 5.66695C23.3524 5.7962 23.5208 5.73745 23.607 5.61995C23.5757 5.78445 23.6658 5.98028 23.8851 5.98028C24.2689 5.98028 24.2689 5.38887 23.8851 5.38887C23.7754 5.38887 23.701 5.43587 23.654 5.50637C23.6618 5.43979 23.6462 5.36929 23.5835 5.30271C22.4007 4.05331 20.9085 3.0115 19.2674 2.28302C24.0613 4.03765 28.0484 8.33023 28.6242 13.2847C28.2678 11.7024 27.6059 10.171 26.6385 8.78847C26.3917 8.4399 25.8473 8.74148 26.0549 9.1253C27.3434 11.4831 27.9505 14.0602 28.0367 16.7313C28.1268 19.5199 27.0419 21.9012 25.5575 24.2003C25.4047 24.4353 25.7572 24.7212 25.9491 24.5253C26.0392 24.5723 26.1489 24.5723 26.2429 24.4862C28.3853 22.4887 29.9519 19.4964 29.7404 16.5002C29.7404 16.4846 29.7326 16.4689 29.7286 16.4532L29.7326 16.4572Z" fill="#617591"/>
<path d="M8.91976 26.8563C8.82576 27.0756 8.95109 27.2949 9.17042 27.3693C9.331 27.4242 9.47591 27.479 9.64433 27.5025C9.93415 27.5378 10.0438 27.1422 9.86757 26.9659C9.75399 26.8484 9.60125 26.7662 9.46417 26.6761C9.27225 26.5469 9.002 26.6604 8.91584 26.8602L8.91976 26.8563Z" fill="#617591"/>
</svg>
