<svg width="30" height="31" viewBox="0 0 30 31" fill="none" xmlns="http://www.w3.org/2000/svg">
<path d="M8.73183 22.3361H11.7398V12.6582H8.73183V22.3401V22.3361ZM10.2358 7.84083C9.27231 7.84083 8.49292 8.62415 8.49292 9.58763C8.49292 10.6999 9.53082 11.5655 10.694 11.2718C11.2815 11.1229 11.7633 10.6451 11.9199 10.0576C12.2254 8.89048 11.352 7.83691 10.2397 7.83691L10.2358 7.84083ZM19.4006 12.4154C17.9358 12.4154 16.9567 13.2183 16.5533 13.9781H16.5102V12.6543H13.6236V22.3361H16.6316V17.5461C16.6316 16.285 16.8705 15.0591 18.4371 15.0591C20.0038 15.0591 19.9999 16.5043 19.9999 17.6284V22.3361H23.0078V17.0252C23.0078 14.4207 22.4438 12.4154 19.3967 12.4154H19.4006Z" fill="#617591"/>
<path d="M25.3382 25.0897C24.9269 25.2112 24.6998 25.6694 24.5039 26.0219C24.3277 26.343 23.9869 26.719 23.9869 27.095C23.9869 27.2164 24.1123 27.3144 24.2298 27.2791C24.594 27.1773 24.8643 26.7504 25.1267 26.4958C25.4165 26.2138 25.8042 25.8691 25.8121 25.4461C25.8121 25.2072 25.5692 25.0192 25.3342 25.0858L25.3382 25.0897Z" fill="#617591"/>
<path d="M29.7326 16.8605C31.5107 9.67745 24.0888 2.41217 17.3366 1.13537C13.6236 0.434296 9.76187 1.10012 6.59727 3.16416C3.87915 4.93446 1.09837 8.07948 0.753705 11.4086C0.745872 11.483 0.76937 11.5418 0.800702 11.5927C-1.34167 17.0876 0.99262 23.9965 5.68861 27.4862C10.3454 30.9446 18.0024 32.1548 22.9529 28.5437C23.372 28.2382 23.0235 27.6311 22.5456 27.8544C22.3655 27.9366 22.1853 28.0189 22.009 28.1011C21.919 27.9444 21.731 27.8426 21.496 27.9562C18.1982 29.5189 13.6197 28.7278 10.3611 27.5684C9.99295 27.4392 9.74229 28.0228 10.0948 28.1951C11.8298 29.0372 13.7176 29.5307 15.6524 29.6325C16.4592 29.6756 17.27 29.6442 18.0768 29.562C16.847 29.8714 15.578 30.0124 14.2111 29.891C11.4342 29.6403 8.98246 28.6063 6.68734 27.071C3.99664 25.2733 2.15976 23.0839 1.29028 19.9507C0.534374 17.2365 0.49521 14.3774 1.32944 11.6906C1.36469 11.6632 1.39995 11.6318 1.41953 11.5888C1.56444 11.3146 1.70544 11.0443 1.84644 10.778C1.02004 12.9047 0.777209 15.2625 1.14928 17.5106C1.85035 21.7758 4.25514 24.5918 7.79182 26.9065C8.21481 27.1846 8.64172 26.4718 8.19131 26.2329C5.0502 24.5683 2.55926 20.781 2.03052 17.3187C1.44695 13.4961 2.83733 9.90853 5.11287 6.86534C5.3087 6.60685 4.89746 6.32093 4.67422 6.52851C4.30214 6.87709 3.95747 7.25308 3.63631 7.64866C4.15722 6.86534 4.7408 6.12902 5.44187 5.44362C5.28129 5.71386 5.53978 6.12119 5.86094 5.91361C6.68735 5.38487 7.48633 4.82088 8.34406 4.33522C8.95505 3.99056 9.60521 3.7164 10.2319 3.39916C10.3337 3.43049 10.4512 3.43832 10.5883 3.40307C15.1393 2.24768 19.6708 2.74509 23.2154 6.07027C23.3524 6.19952 23.5209 6.14077 23.607 6.02327C23.5757 6.18777 23.6658 6.3836 23.8851 6.3836C24.2689 6.3836 24.2689 5.79219 23.8851 5.79219C23.7754 5.79219 23.701 5.83919 23.654 5.90969C23.6619 5.84311 23.6423 5.77261 23.5835 5.70603C22.4007 4.45664 20.9085 3.41482 19.2674 2.68634C24.0613 4.44097 28.0484 8.73356 28.6242 13.688C28.2678 12.1057 27.6059 10.5744 26.6385 9.1918C26.3917 8.84322 25.8473 9.1448 26.0549 9.52862C27.3435 11.8864 27.9505 14.4635 28.0367 17.1346C28.1268 19.9233 27.0419 22.3045 25.5575 24.6036C25.4047 24.8386 25.7572 25.1245 25.9491 24.9287C26.0392 24.9757 26.1489 24.9757 26.2429 24.8895C28.3853 22.892 29.9519 19.8998 29.7404 16.9036C29.7404 16.8879 29.7326 16.8722 29.7287 16.8566L29.7326 16.8605Z" fill="#617591"/>
<path d="M8.91976 27.2596C8.82576 27.4789 8.95109 27.6982 9.17042 27.7727C9.331 27.8275 9.47592 27.8823 9.64433 27.9058C9.93416 27.9411 10.0438 27.5455 9.86757 27.3693C9.75399 27.2518 9.60124 27.1695 9.46416 27.0794C9.27225 26.9502 9.00201 27.0638 8.91584 27.2635L8.91976 27.2596Z" fill="#617591"/>
</svg>
