<svg width="19" height="44" viewBox="0 0 19 44" fill="none" xmlns="http://www.w3.org/2000/svg">
<g clip-path="url(#clip0_6_14894)">
<path d="M19 28.2659C18.8398 28.7 18.6715 29.1315 18.522 29.5682C17.0882 33.8085 12.672 36.545 8.27708 35.9067C3.54844 35.222 0.0747225 31.4339 0.0213217 26.8421C-0.0133888 23.762 -3.86092e-05 20.6819 0.0159816 17.6044C0.040012 12.7775 3.58048 8.85505 8.41326 8.26849C13.0565 7.70518 17.4513 10.6793 18.7249 15.2401C18.7917 15.4778 18.9092 15.7026 19.0026 15.9326V28.2685L19 28.2659ZM16.8853 22.2065C16.8853 20.5786 16.92 18.9532 16.8773 17.3253C16.7758 13.3874 13.4863 10.2711 9.48127 10.2814C5.47888 10.2917 2.19473 13.4235 2.13332 17.3693C2.08526 20.5372 2.08259 23.7052 2.13332 26.8731C2.19473 30.7956 5.51893 33.9274 9.52399 33.9197C13.521 33.9119 16.7998 30.7646 16.8799 26.8318C16.912 25.2917 16.8853 23.7491 16.8799 22.2091L16.8853 22.2065Z" fill="#617591"/>
<path d="M10.0341 0C10.8458 0.826873 11.6494 1.6615 12.4718 2.47804C13.0165 3.02067 13.6039 3.58656 12.8296 4.30749C12.0499 5.03359 11.4786 4.41085 10.9606 3.8708C10.5173 3.41085 10.1088 2.91731 9.42797 2.14729C8.8192 2.90439 8.41068 3.45736 7.95143 3.96382C7.46282 4.50388 6.88075 4.96899 6.17319 4.30749C5.47097 3.65116 5.90885 3.09302 6.44286 2.56331C7.29727 1.71835 8.13567 0.855297 8.9794 0C9.33184 0 9.68162 0 10.0341 0V0Z" fill="#617591"/>
<path d="M9.57475 41.9849C10.2823 41.171 10.7416 40.4578 11.385 39.9772C11.7081 39.7343 12.3649 39.9126 12.8696 39.8997C12.8509 40.3932 13.0298 41.0392 12.7761 41.3493C12.0445 42.2485 11.1928 43.078 10.269 43.7911C9.94855 44.0392 9.11016 44.0728 8.80577 43.8402C7.8499 43.1012 6.96612 42.2408 6.20249 41.3131C5.95684 41.016 6.17045 40.3596 6.17579 39.8661C6.68042 39.8997 7.31322 39.7627 7.66567 40.0082C8.2958 40.4423 8.75504 41.109 9.57475 41.9849Z" fill="#617591"/>
<path d="M8.47474 16.4396C8.47474 15.8867 8.35459 15.2975 8.51479 14.7936C8.6296 14.4345 9.1556 13.9254 9.43862 13.9564C9.83379 14.0029 10.4479 14.4603 10.4906 14.7988C10.6241 15.8892 10.6134 17.0133 10.4933 18.1063C10.4586 18.4319 9.85782 18.9694 9.57213 18.9358C9.17696 18.8918 8.65897 18.4629 8.51746 18.083C8.3359 17.5947 8.47207 16.9926 8.47474 16.4396V16.4396Z" fill="#617591"/>
</g>
<defs>
<clipPath id="clip0_6_14894">
<rect width="19" height="44" fill="white"/>
</clipPath>
</defs>
</svg>
