<svg width="30" height="31" viewBox="0 0 30 31" fill="none" xmlns="http://www.w3.org/2000/svg">
<path d="M22.2754 16.7508C22.3498 16.3317 22.3889 15.9009 22.3889 15.4623C22.3889 11.3773 19.0794 8.06773 14.9944 8.06773C14.5283 8.06773 14.074 8.11081 13.6314 8.19306C12.9774 7.79357 12.2097 7.56641 11.3912 7.56641C9.00595 7.56641 7.07507 9.49729 7.07507 11.8825C7.07507 12.7128 7.31007 13.4883 7.71739 14.1463C7.63906 14.5732 7.5999 15.0119 7.5999 15.4583C7.5999 19.5433 10.9094 22.8529 14.9944 22.8529C15.4683 22.8529 15.9305 22.8059 16.3809 22.7197C17.031 23.1114 17.7948 23.3385 18.6094 23.3385C20.9907 23.3385 22.9255 21.4037 22.9255 19.0224C22.9255 18.1882 22.6866 17.4088 22.2754 16.7469V16.7508ZM15.2568 20.6361C13.1497 20.6361 11.0347 19.6804 11.0465 18.0394C11.0465 17.542 11.4186 17.0876 11.9121 17.0876C13.1536 17.0876 13.1419 18.9284 15.1158 18.9284C16.5023 18.9284 16.9723 18.1725 16.9723 17.6477C16.9723 15.7443 10.9838 16.9114 10.9838 13.3356C10.9838 11.4008 12.574 10.0652 15.0728 10.2101C17.458 10.3511 18.8562 11.4008 18.9893 12.3799C19.0559 13.0183 18.629 13.5196 17.8927 13.5196C16.8156 13.5196 16.7021 12.0822 14.8456 12.0822C14.0074 12.0822 13.3025 12.4308 13.3025 13.1867C13.3025 14.7651 19.2557 13.8486 19.2557 17.3266C19.2557 19.3318 17.6499 20.6439 15.2568 20.6439V20.6361Z" fill="#617591"/>
<path d="M25.3421 24.8192C24.9308 24.9406 24.7037 25.3989 24.5078 25.7514C24.3316 26.0725 23.9908 26.4485 23.9908 26.8245C23.9908 26.9459 24.1162 27.0439 24.2337 27.0086C24.5979 26.9068 24.8682 26.4799 25.1306 26.2253C25.4204 25.9433 25.8081 25.5986 25.816 25.1756C25.816 24.9367 25.5731 24.7487 25.3382 24.8153L25.3421 24.8192Z" fill="#617591"/>
<path d="M29.7326 16.59C31.5107 9.40695 24.0888 2.14167 17.3366 0.864858C13.6236 0.163788 9.76187 0.829609 6.59726 2.89365C3.87914 4.66395 1.09836 7.80898 0.753704 11.1381C0.745871 11.2125 0.76937 11.2712 0.800703 11.3222C-1.34167 16.8171 0.992616 23.726 5.68861 27.2157C10.3454 30.674 18.0024 31.8843 22.9529 28.2732C23.372 27.9677 23.0234 27.3606 22.5456 27.5838C22.3655 27.6661 22.1853 27.7483 22.009 27.8306C21.919 27.6739 21.731 27.5721 21.4999 27.6857C18.2021 29.2484 13.6236 28.4572 10.365 27.2979C9.99686 27.1687 9.7462 27.7523 10.0987 27.9246C11.8337 28.7667 13.7215 29.2602 15.6563 29.362C16.4632 29.4051 17.2739 29.3737 18.0807 29.2915C16.8509 29.6009 15.5819 29.7419 14.215 29.6205C11.4382 29.3698 8.98638 28.3358 6.69126 26.8005C4.00056 25.0028 2.16368 22.8134 1.29419 19.6802C0.538291 16.966 0.499125 14.1069 1.33336 11.4201C1.36861 11.3927 1.40386 11.3613 1.42344 11.3182C1.56836 11.0441 1.70935 10.7738 1.85035 10.5075C1.02395 12.6342 0.78112 14.992 1.1532 17.2401C1.85427 21.5053 4.25905 24.3213 7.79574 26.636C8.21873 26.9141 8.64564 26.2013 8.19523 25.9624C5.05412 24.2978 2.56317 20.5105 2.03443 17.0482C1.45086 13.2256 2.84125 9.63802 5.11679 6.59483C5.31262 6.33634 4.90137 6.05042 4.67813 6.258C4.30605 6.60658 3.96139 6.98257 3.64023 7.37815C4.16114 6.59483 4.74471 5.85851 5.44578 5.17311C5.2852 5.44335 5.5437 5.85068 5.86486 5.6431C6.69126 5.11436 7.49024 4.55037 8.34798 4.06471C8.95896 3.72005 9.60912 3.44589 10.2358 3.12865C10.3376 3.15998 10.4551 3.16781 10.5922 3.13257C15.1433 1.97717 19.6748 2.47458 23.2193 5.79976C23.3564 5.92901 23.5248 5.87026 23.6109 5.75276C23.5796 5.91726 23.6697 6.11309 23.889 6.11309C24.2728 6.11309 24.2728 5.52169 23.889 5.52169C23.7793 5.52169 23.7049 5.56868 23.6579 5.63918C23.6658 5.5726 23.6462 5.5021 23.5874 5.43552C22.4046 4.18613 20.9124 3.14431 19.2714 2.41583C24.0653 4.17046 28.0523 8.46305 28.6281 13.4175C28.2717 11.8352 27.6098 10.3038 26.6424 8.92129C26.3956 8.57271 25.8512 8.87429 26.0588 9.25812C27.3474 11.6159 27.9544 14.193 28.0406 16.8641C28.1307 19.6527 27.0458 22.034 25.5614 24.3331C25.4087 24.5681 25.7611 24.854 25.9531 24.6582C26.0431 24.7052 26.1528 24.7052 26.2468 24.619C28.3892 22.6215 29.9558 19.6293 29.7443 16.6331C29.7443 16.6174 29.7365 16.6017 29.7326 16.5861V16.59Z" fill="#617591"/>
<path d="M8.92367 26.9842C8.82967 27.2035 8.955 27.4229 9.17433 27.4973C9.33491 27.5521 9.47982 27.6069 9.64824 27.6304C9.93806 27.6657 10.0477 27.2701 9.87148 27.0939C9.7579 26.9764 9.60515 26.8941 9.46807 26.804C9.27616 26.6748 9.00591 26.7884 8.91975 26.9881L8.92367 26.9842Z" fill="#617591"/>
</svg>
