<svg width="30" height="31" viewBox="0 0 30 31" fill="none" xmlns="http://www.w3.org/2000/svg">
<path d="M25.3421 24.4198C24.9308 24.5412 24.7037 24.9995 24.5078 25.352C24.3316 25.6731 23.9908 26.0491 23.9908 26.4251C23.9908 26.5465 24.1162 26.6444 24.2337 26.6092C24.5979 26.5074 24.8682 26.0804 25.1306 25.8259C25.4204 25.5439 25.8081 25.1992 25.816 24.7762C25.816 24.5373 25.5731 24.3493 25.3382 24.4159L25.3421 24.4198Z" fill="#617591"/>
<path d="M29.7326 16.1906C31.5107 9.00753 24.0888 1.74225 17.3366 0.465444C13.6236 -0.235626 9.76186 0.430195 6.59726 2.49424C3.87914 4.26454 1.09836 7.40956 0.753695 10.7387C0.745862 10.8131 0.769372 10.8718 0.800704 10.9227C-1.34167 16.4177 0.99261 23.3266 5.6886 26.8163C10.3454 30.2746 18.0024 31.4849 22.9529 27.8738C23.372 27.5683 23.0234 26.9612 22.5456 27.1844C22.3655 27.2667 22.1853 27.3489 22.009 27.4312C21.919 27.2745 21.731 27.1727 21.496 27.2863C18.1982 28.849 13.6197 28.0578 10.3611 26.8985C9.99294 26.7693 9.74228 27.3529 10.0948 27.5252C11.8298 28.3672 13.7176 28.8607 15.6524 28.9626C16.4592 29.0057 17.27 28.9743 18.0768 28.8921C16.847 29.2015 15.578 29.3425 14.2111 29.2211C11.4342 28.9704 8.98246 27.9364 6.68734 26.4011C3.99664 24.6034 2.15976 22.414 1.29028 19.2808C0.534376 16.5666 0.4952 13.7074 1.32943 11.0207C1.36468 10.9932 1.39994 10.9619 1.41952 10.9188C1.56443 10.6447 1.70543 10.3744 1.84643 10.1081C1.02003 12.2348 0.777199 14.5926 1.14927 16.8407C1.85034 21.1059 4.25513 23.9219 7.79181 26.2366C8.2148 26.5147 8.64172 25.8019 8.19131 25.563C5.0502 23.8984 2.55925 20.1111 2.03051 16.6488C1.44694 12.8262 2.83732 9.23861 5.11286 6.19542C5.30869 5.93692 4.89745 5.65101 4.67421 5.85859C4.30213 6.20717 3.95747 6.58316 3.63631 6.97874C4.15722 6.19542 4.74079 5.4591 5.44186 4.7737C5.28128 5.04394 5.53977 5.45126 5.86093 5.24369C6.68734 4.71495 7.48632 4.15096 8.34405 3.6653C8.95504 3.32064 9.6052 3.04648 10.2319 2.72923C10.3337 2.76057 10.4512 2.7684 10.5883 2.73315C15.1393 1.57776 19.6708 2.07516 23.2154 5.40035C23.3524 5.5296 23.5208 5.47085 23.607 5.35335C23.5757 5.51785 23.6658 5.71368 23.8851 5.71368C24.2689 5.71368 24.2689 5.12227 23.8851 5.12227C23.7754 5.12227 23.701 5.16927 23.654 5.23977C23.6618 5.17319 23.6462 5.10269 23.5835 5.03611C22.4007 3.78671 20.9085 2.7449 19.2674 2.01641C24.0613 3.77105 28.0484 8.06363 28.6242 13.0181C28.2678 11.4358 27.6059 9.90443 26.6385 8.52187C26.3917 8.1733 25.8473 8.47488 26.0549 8.8587C27.3434 11.2165 27.9505 13.7936 28.0367 16.4647C28.1268 19.2533 27.0419 21.6346 25.5575 23.9337C25.4047 24.1687 25.7572 24.4546 25.9491 24.2587C26.0392 24.3057 26.1489 24.3057 26.2429 24.2196C28.3853 22.2221 29.9519 19.2298 29.7404 16.2336C29.7404 16.218 29.7326 16.2023 29.7286 16.1866L29.7326 16.1906Z" fill="#617591"/>
<path d="M8.92367 26.5848C8.82967 26.8041 8.95499 27.0234 9.17432 27.0979C9.3349 27.1527 9.47983 27.2075 9.64824 27.231C9.93807 27.2663 10.0477 26.8707 9.87148 26.6944C9.75789 26.5769 9.60515 26.4947 9.46807 26.4046C9.27615 26.2754 9.00591 26.389 8.91975 26.5887L8.92367 26.5848Z" fill="#617591"/>
<path d="M5.26953 15.0672C5.41053 14.6168 5.76304 14.3935 6.17428 14.2369C7.71741 13.6494 9.26055 13.0658 10.8076 12.4783C14.2307 11.1819 17.6538 9.88553 21.073 8.58913C21.355 8.48339 21.6409 8.39722 21.9503 8.43639C22.5691 8.51864 22.9882 8.96904 22.9725 9.60353C22.9647 9.99127 22.8746 10.379 22.7963 10.7589C22.0756 14.2604 21.3511 17.7618 20.6265 21.2593C20.5717 21.5256 20.5286 21.792 20.4542 22.0505C20.2858 22.6301 19.945 23.0414 19.3144 23.1354C18.9032 23.198 18.5468 23.0453 18.2139 22.8181C17.1329 22.074 16.0519 21.3298 14.967 20.5857C14.9161 20.5504 14.8652 20.5152 14.8025 20.476C14.3521 20.899 13.9056 21.3181 13.4591 21.7371C13.2085 21.976 12.9265 22.164 12.5779 22.2189C11.9473 22.3246 11.4029 21.9956 11.1288 21.3533C10.9408 20.9068 10.7488 20.4642 10.5569 20.0217C10.1927 19.1835 9.82062 18.3454 9.46029 17.5033C9.40938 17.3858 9.34279 17.3192 9.22529 17.2761C8.19131 16.9001 7.16125 16.5202 6.12727 16.1442C5.73169 15.9993 5.41054 15.7839 5.26562 15.3688V15.0593L5.26953 15.0672ZM12.9461 17.9341C12.9931 17.9694 13.0205 17.9929 13.0518 18.0164C14.9553 19.3284 16.8587 20.6366 18.7622 21.9447C19.1969 22.2424 19.381 22.1601 19.4907 21.6353C19.7962 20.1587 20.1017 18.6822 20.4072 17.2056C20.9085 14.7695 21.4137 12.3334 21.9111 9.89727C21.9386 9.77194 21.9033 9.63094 21.8955 9.49778C21.7584 9.51345 21.6096 9.49778 21.4842 9.5487C16.565 11.4091 11.6458 13.2734 6.73043 15.1377C6.68734 15.1533 6.64818 15.1768 6.59334 15.2043C6.62859 15.2238 6.64034 15.2356 6.65601 15.2395C7.64299 15.5998 8.6339 15.9641 9.62479 16.3205C9.69921 16.3479 9.80887 16.3322 9.87937 16.2931C10.8664 15.7722 11.8494 15.2395 12.8325 14.7147C14.5049 13.8178 16.1812 12.917 17.8575 12.024C17.9789 11.9574 18.1434 11.9261 18.2844 11.9417C18.488 11.9652 18.6173 12.1101 18.6682 12.3138C18.723 12.5331 18.6408 12.7094 18.4802 12.8543C17.646 13.618 16.8157 14.3818 15.9814 15.1455C14.9749 16.0698 13.9683 16.9941 12.9461 17.9302V17.9341ZM11.5361 19.6653L11.5909 19.6574C11.5909 19.1287 11.5948 18.5999 11.5909 18.0673C11.5909 17.8558 11.6653 17.6952 11.822 17.5542C12.7424 16.7161 13.6589 15.874 14.5754 15.0319C14.6106 15.0006 14.6576 14.981 14.7007 14.9536L14.6576 14.9105C13.2555 15.6625 11.8533 16.4145 10.4473 17.1704L11.5361 19.6653V19.6653ZM12.6249 21.1026L13.9252 19.8807L12.6249 18.9838V21.1026Z" fill="#617591"/>
</svg>
