<svg width="30" height="31" viewBox="0 0 30 31" fill="none" xmlns="http://www.w3.org/2000/svg">
<path d="M22.1306 9.40685C21.5313 9.75934 20.8694 10.0218 20.1644 10.1588C19.5965 9.55568 18.7936 9.17969 17.9046 9.17969C16.193 9.17969 14.8065 10.5662 14.8065 12.2777C14.8065 12.5205 14.8339 12.7555 14.8849 12.9866C12.3117 12.8574 10.0283 11.6236 8.50082 9.75151C8.23449 10.2098 8.08174 10.7385 8.08174 11.3064C8.08174 12.3795 8.62615 13.3274 9.46038 13.8835C8.95122 13.8678 8.4734 13.7269 8.05824 13.4958C8.05824 13.5114 8.05824 13.5232 8.05824 13.5349C8.05824 15.035 9.12747 16.2883 10.5414 16.5703C10.2829 16.6408 10.0087 16.68 9.72671 16.68C9.52696 16.68 9.33505 16.6604 9.14314 16.6212C9.53871 17.8549 10.6824 18.7479 12.0375 18.7753C10.9761 19.6057 9.64055 20.1031 8.19141 20.1031C7.94075 20.1031 7.69792 20.0874 7.45117 20.06C8.82198 20.9412 10.4474 21.4504 12.1981 21.4504C17.8967 21.4504 21.0104 16.7309 21.0104 12.638C21.0104 12.5049 21.0104 12.3717 21.0026 12.2385C21.6096 11.7999 22.1345 11.2555 22.5457 10.6367C21.9896 10.8834 21.3942 11.0479 20.7676 11.1223C21.406 10.7385 21.8956 10.1314 22.1306 9.41077V9.40685Z" fill="#617591"/>
<path d="M25.3421 24.5526C24.9308 24.674 24.7037 25.1323 24.5078 25.4848C24.3316 25.8059 23.9908 26.1819 23.9908 26.5579C23.9908 26.6793 24.1162 26.7773 24.2337 26.742C24.5979 26.6402 24.8682 26.2133 25.1306 25.9587C25.4204 25.6767 25.8081 25.332 25.816 24.909C25.816 24.6701 25.5731 24.4821 25.3382 24.5487L25.3421 24.5526Z" fill="#617591"/>
<path d="M29.7326 16.3234C31.5107 9.14034 24.0888 1.87507 17.3366 0.598256C13.6236 -0.102814 9.76186 0.563007 6.59726 2.62705C3.87914 4.39735 1.09836 7.54237 0.753703 10.8715C0.74587 10.9459 0.769371 11.0046 0.800703 11.0556C-1.34167 16.5505 0.992615 23.4594 5.68861 26.9491C10.3454 30.4074 18.0024 31.6177 22.9529 28.0066C23.372 27.7011 23.0234 27.094 22.5456 27.3172C22.3655 27.3995 22.1853 27.4817 22.009 27.564C21.919 27.4073 21.731 27.3055 21.4999 27.4191C18.2021 28.9818 13.6236 28.1906 10.365 27.0313C9.99686 26.9021 9.7462 27.4857 10.0987 27.658C11.8337 28.5001 13.7215 28.9935 15.6563 29.0954C16.4632 29.1385 17.2739 29.1071 18.0807 29.0249C16.8509 29.3343 15.5819 29.4753 14.215 29.3539C11.4382 29.1032 8.98638 28.0692 6.69126 26.5339C4.00056 24.7362 2.16368 22.5468 1.29419 19.4136C0.538292 16.6994 0.499126 13.8403 1.33336 11.1535C1.36861 11.1261 1.40386 11.0947 1.42344 11.0516C1.56835 10.7775 1.70935 10.5072 1.85035 10.2409C1.02395 12.3676 0.781121 14.7254 1.1532 16.9735C1.85427 21.2387 4.25905 24.0547 7.79573 26.3694C8.21873 26.6475 8.64564 25.9347 8.19523 25.6958C5.05412 24.0312 2.56317 20.2439 2.03443 16.7816C1.45086 12.959 2.84125 9.37142 5.11679 6.32823C5.31262 6.06974 4.90138 5.78382 4.67813 5.9914C4.30605 6.33998 3.96139 6.71597 3.64023 7.11155C4.16114 6.32823 4.74471 5.59191 5.44578 4.90651C5.2852 5.17675 5.5437 5.58408 5.86486 5.3765C6.69126 4.84776 7.49024 4.28377 8.34797 3.79811C8.95896 3.45345 9.60912 3.17929 10.2358 2.86205C10.3376 2.89338 10.4551 2.90121 10.5922 2.86596C15.1433 1.71057 19.6748 2.20798 23.2193 5.53316C23.3564 5.66241 23.5248 5.60366 23.6109 5.48616C23.5796 5.65066 23.6697 5.84649 23.889 5.84649C24.2728 5.84649 24.2728 5.25508 23.889 5.25508C23.7794 5.25508 23.7049 5.30208 23.6579 5.37258C23.6658 5.306 23.6462 5.2355 23.5874 5.16892C22.4046 3.91953 20.9124 2.87771 19.2713 2.14923C24.0653 3.90386 28.0523 8.19645 28.6281 13.1509C28.2717 11.5686 27.6098 10.0372 26.6424 8.65469C26.3956 8.30611 25.8512 8.60769 26.0588 8.99151C27.3474 11.3493 27.9544 13.9264 28.0406 16.5975C28.1307 19.3861 27.0458 21.7674 25.5614 24.0665C25.4086 24.3015 25.7611 24.5874 25.9531 24.3916C26.0431 24.4386 26.1528 24.4386 26.2468 24.3524C28.3892 22.3549 29.9558 19.3626 29.7443 16.3665C29.7443 16.3508 29.7365 16.3351 29.7326 16.3195V16.3234Z" fill="#617591"/>
<path d="M8.92367 26.7225C8.82967 26.9418 8.955 27.1611 9.17433 27.2356C9.33491 27.2904 9.47982 27.3452 9.64824 27.3687C9.93807 27.404 10.0477 27.0084 9.87148 26.8321C9.7579 26.7146 9.60515 26.6324 9.46807 26.5423C9.27616 26.4131 9.00592 26.5266 8.91975 26.7264L8.92367 26.7225Z" fill="#617591"/>
</svg>
