<svg width="30" height="30" viewBox="0 0 30 30" fill="none" xmlns="http://www.w3.org/2000/svg">
<path d="M18.5898 16.5307C18.347 16.3937 18.1277 16.2683 17.8535 16.1313C17.6146 16.0177 17.3365 15.8453 17.0624 15.9237C16.8626 15.9824 16.7177 16.1665 16.5806 16.3153C16.4044 16.5073 16.2242 16.6952 16.044 16.8832C16.044 16.8832 13.7058 16.049 13.0713 14.3179C13.1614 14.2121 13.2515 14.1064 13.3416 14.0045C13.4904 13.8244 13.7176 13.6521 13.7293 13.4014C13.7372 13.1586 13.651 12.9157 13.5609 12.6925C13.5061 12.5515 13.4473 12.4105 13.3886 12.2656C13.2868 12.0071 13.1575 11.6428 13.0126 11.494C12.8168 11.2903 12.4839 11.2512 12.2215 11.3804C12.2215 11.3804 10.694 12.1324 11.1796 13.6011C11.1796 13.6011 12.1314 17.7488 16.7412 18.5595C16.7412 18.5595 18.394 18.7789 18.8287 17.7723C18.9227 17.5569 18.9854 17.2514 18.9658 17.0164C18.9462 16.7892 18.7857 16.6365 18.5977 16.5307H18.5898ZM14.9748 7.10352C10.6587 7.1466 7.19254 10.6754 7.23563 14.9915C7.25129 16.4485 7.66254 17.8115 8.36752 18.9708L7.41971 22.954L11.3245 21.7907C12.4525 22.4017 13.7489 22.7464 15.1236 22.7346C19.4397 22.6916 22.9059 19.1627 22.8628 14.8466C22.8197 10.5305 19.2909 7.06435 14.9748 7.10743V7.10352ZM15.1981 21.4343C13.8312 21.4461 12.5622 21.0348 11.5125 20.3259L9.28792 20.9917L9.83624 18.6888C9.09992 17.647 8.66127 16.3819 8.64952 15.0111C8.61427 11.4274 11.493 8.49391 15.0766 8.46257C18.6603 8.42732 21.5938 11.306 21.6252 14.8897C21.6604 18.4734 18.7817 21.4069 15.1981 21.4382V21.4343Z" fill="#617591"/>
<path d="M25.3382 24.286C24.9269 24.4074 24.6998 24.8657 24.5039 25.2182C24.3277 25.5393 23.9869 25.9153 23.9869 26.2913C23.9869 26.4127 24.1123 26.5106 24.2298 26.4754C24.594 26.3736 24.8643 25.9467 25.1267 25.6921C25.4165 25.4101 25.8042 25.0654 25.8121 24.6424C25.8121 24.4035 25.5692 24.2155 25.3342 24.2821L25.3382 24.286Z" fill="#617591"/>
<path d="M29.7326 16.0568C31.5107 8.87374 24.0888 1.60846 17.3366 0.331655C13.6236 -0.369415 9.76186 0.296406 6.59726 2.36045C3.87914 4.13075 1.09837 7.27577 0.753705 10.6049C0.745872 10.6793 0.769369 10.738 0.800702 10.789C-1.34167 16.2839 0.992619 23.1928 5.68861 26.6825C10.3454 30.1408 18.0024 31.3511 22.9529 27.74C23.372 27.4345 23.0234 26.8274 22.5456 27.0506C22.3655 27.1329 22.1853 27.2151 22.009 27.2974C21.919 27.1407 21.731 27.0389 21.496 27.1525C18.1982 28.7152 13.6197 27.924 10.3611 26.7647C9.99294 26.6355 9.74228 27.2191 10.0948 27.3914C11.8298 28.2335 13.7176 28.7269 15.6524 28.8288C16.4592 28.8719 17.27 28.8405 18.0768 28.7583C16.847 29.0677 15.578 29.2087 14.2111 29.0873C11.4342 28.8366 8.98246 27.8026 6.68734 26.2673C3.99664 24.4696 2.15976 22.2802 1.29028 19.147C0.534374 16.4328 0.49521 13.5737 1.32944 10.8869C1.36469 10.8595 1.39994 10.8281 1.41952 10.785C1.56444 10.5109 1.70543 10.2406 1.84643 9.9743C1.02003 12.101 0.777202 14.4588 1.14928 16.7069C1.85035 20.9721 4.25514 23.7881 7.79182 26.1028C8.21481 26.3809 8.64172 25.6681 8.19131 25.4292C5.05021 23.7646 2.55925 19.9773 2.03051 16.515C1.44694 12.6924 2.83733 9.10482 5.11287 6.06163C5.3087 5.80313 4.89746 5.51722 4.67421 5.7248C4.30213 6.07338 3.95748 6.44937 3.63632 6.84495C4.15722 6.06163 4.7408 5.32531 5.44187 4.63991C5.28129 4.91015 5.53978 5.31747 5.86094 5.1099C6.68734 4.58116 7.48633 4.01717 8.34406 3.53151C8.95505 3.18685 9.6052 2.91269 10.2319 2.59544C10.3337 2.62678 10.4512 2.63461 10.5883 2.59936C15.1393 1.44397 19.6708 1.94137 23.2154 5.26656C23.3524 5.39581 23.5208 5.33706 23.607 5.21956C23.5757 5.38406 23.6658 5.57989 23.8851 5.57989C24.2689 5.57989 24.2689 4.98848 23.8851 4.98848C23.7754 4.98848 23.701 5.03548 23.654 5.10598C23.6618 5.0394 23.6462 4.9689 23.5835 4.90232C22.4007 3.65292 20.9085 2.61111 19.2674 1.88262C24.0613 3.63726 28.0484 7.92984 28.6242 12.8843C28.2678 11.302 27.6059 9.77064 26.6385 8.38808C26.3917 8.03951 25.8473 8.34108 26.0549 8.72491C27.3434 11.0827 27.9505 13.6598 28.0367 16.3309C28.1268 19.1195 27.0419 21.5008 25.5575 23.7999C25.4047 24.0349 25.7572 24.3208 25.9491 24.1249C26.0392 24.1719 26.1489 24.1719 26.2429 24.0858C28.3853 22.0883 29.9519 19.096 29.7404 16.0999C29.7404 16.0842 29.7326 16.0685 29.7286 16.0528L29.7326 16.0568Z" fill="#617591"/>
<path d="M8.91976 26.4559C8.82576 26.6752 8.95109 26.8945 9.17042 26.969C9.331 27.0238 9.47591 27.0786 9.64433 27.1021C9.93415 27.1374 10.0438 26.7418 9.86757 26.5655C9.75399 26.448 9.60125 26.3658 9.46417 26.2757C9.27225 26.1465 9.002 26.26 8.91584 26.4598L8.91976 26.4559Z" fill="#617591"/>
</svg>
