<svg width="78" height="66" viewBox="0 0 78 66" fill="none" xmlns="http://www.w3.org/2000/svg">
<g clip-path="url(#clip0_5_14758)">
<path d="M12.1835 18.9465C13.4824 18.2895 14.8035 18.2747 16.1099 18.9207L15.7796 13.1847C13.7051 15.5064 12.1278 18.4261 11.8235 21.5524C11.4821 25.0552 12.7624 28.7168 16.648 29.2852C20.1735 29.7982 23.8401 27.4803 26.2968 25.2029C29.6368 22.1061 31.2586 17.5254 29.7556 13.0888L27.5772 16.8906C31.1844 27.3437 37.56 37.2505 39.0222 48.3532C39.6011 52.7567 38.4952 59.8805 32.6206 59.7513C30.097 59.6959 27.2172 57.95 24.9757 56.8944C22.5264 55.7391 20.129 54.4767 17.7539 53.1738C14.9891 51.6568 12.2503 50.0844 9.48553 48.5636C8.12726 47.818 6.76529 47.0835 5.39218 46.3748C4.74274 46.0389 4.11185 45.7215 3.50694 45.3192C3.31025 45.1863 3.12098 45.0313 2.91687 44.9095C2.5235 44.6769 2.44185 44.1934 2.60514 44.8394L2.74616 47.257C2.82038 46.2567 4.30112 45.2158 5.05076 44.5736C6.24945 43.5475 7.61142 42.776 9.03649 42.0969C12.1427 40.6168 15.4901 39.7789 18.8709 39.2031C22.1144 38.6531 25.3913 38.3431 28.6571 37.9703C30.3939 37.7746 31.9451 37.4055 33.6374 36.9995C35.3297 36.5935 37.1667 36.8002 38.9369 36.468C41.0151 36.0731 40.6328 29.8721 38.9369 30.1932C37.6194 30.4442 36.4059 30.3667 35.0922 30.4553C34.0456 30.5254 33.0473 30.9056 32.0453 31.1676C29.6739 31.784 27.1133 31.8616 24.6825 32.1384C20.0882 32.6625 15.4827 33.3269 11.111 34.8845C7.42216 36.1986 3.28427 38.3394 1.21719 41.8201C0.0778787 43.7357 -0.330343 46.2789 0.315389 48.4271C0.961122 50.5753 3.06161 51.5903 4.95427 52.5758C9.41502 54.8938 13.7385 57.4517 18.1584 59.8435C22.2183 62.0397 26.5343 64.4574 30.9988 65.7419C35.4596 67.0227 39.1298 63.3353 40.5401 59.4892C42.3177 54.6354 42.2731 49.3757 41.3157 44.3558C39.1669 33.1054 33.2477 23.1802 29.5441 12.4539C29.1841 11.4167 28.2786 11.3244 27.7219 12.2103C27.0576 13.2586 26.976 15.1115 27.3656 16.2594C27.6069 16.9496 27.6403 17.0567 27.4621 16.5731C27.3545 16.8684 27.2061 17.1453 27.0205 17.3963C26.7385 17.8466 26.397 18.2526 26.0408 18.6475C25.3171 19.4448 24.4821 20.1387 23.6026 20.7588C21.8509 21.9879 19.7838 23.0731 17.5906 23.0805C16.3733 23.0805 15.7981 22.6191 14.7405 22.2057C14.1875 21.9916 14.8369 21.6853 14.5252 22.2758L14.5438 22.859C14.6737 22.8184 14.7145 22.6892 14.6625 22.4752C15.0633 21.9584 15.2563 21.2128 15.62 20.6481C16.0839 19.9246 16.6183 19.2492 17.1898 18.6106C18.1361 17.5513 18.3996 13.6387 16.8595 12.8747C15.0522 11.9815 13.2597 11.9851 11.4598 12.9005C9.76015 13.7642 10.3465 19.8914 12.1983 18.9502L12.1835 18.9465Z" fill="#617591"/>
<path d="M61.4781 51.513C59.7191 50.7379 57.9489 49.9849 56.1898 49.2098L55.8224 55.3738C63.7753 55.6913 71.3163 45.36 66.811 38.2473C63.946 33.7257 58.9657 35.2686 55.5144 38.1624C51.0425 41.9125 48.1627 47.3679 50.523 53.1666L52.4861 48.7299C49.135 40.5321 44.7633 32.803 41.3194 24.6531C39.3154 19.9101 36.4727 13.0078 40.3916 8.4825C43.2232 5.21591 47.1496 6.30477 50.6751 7.62617C54.8724 9.20226 59.0325 10.8189 63.0888 12.7346C67.145 14.6503 70.8598 16.673 74.5709 18.9541C74.775 19.0796 75.3428 19.5668 75.5655 19.5742L75.2055 17.9316L75.135 18.238C74.6451 18.9098 74.4002 19.6332 73.8176 20.2792C72.6115 21.6079 71.0268 22.5971 69.4459 23.4239C65.0965 25.6976 60.2201 26.5835 55.4513 27.5469C50.356 28.5767 45.2792 29.3592 40.0947 29.7578C38.0796 29.9128 38.2244 36.1766 40.0947 36.0326C45.6391 35.6082 51.0462 34.7186 56.4941 33.6113C61.4076 32.611 66.4622 31.5923 70.8709 29.1045C74.7379 26.9231 77.5101 23.6786 77.9406 19.1534C78.1262 17.2082 78.0334 14.7832 76.3114 13.5245C74.1627 11.9558 71.6688 10.7082 69.3271 9.45325C64.6214 6.92856 59.745 4.72499 54.7536 2.8204C50.9349 1.36243 46.2181 -1.15857 42.1136 0.605762C38.3988 2.20769 36.5989 6.48563 35.9828 10.1952C35.3186 14.2 35.8567 18.4078 36.918 22.2982C39.8758 33.1167 46.3034 42.8242 50.5304 53.1666C51.0128 54.3514 51.9703 54.1964 52.4935 53.1666C53.1356 51.8968 53.0168 50.0181 52.4935 48.7299L52.423 49.1433C52.4898 48.8886 52.5826 48.645 52.7051 48.4125C52.8758 48.0471 53.0873 47.7112 53.3174 47.379C53.759 46.7404 54.2675 46.1499 54.8056 45.5888C55.8558 44.4852 57.0508 43.4849 58.3645 42.7024C59.5966 41.9642 61.0514 41.3441 62.5247 41.5692C63.3114 41.691 64.0536 42.0897 64.6289 42.6396C64.7068 42.7135 65.4713 43.6067 65.3859 43.6547C65.4453 43.6215 65.256 42.85 65.3562 42.839C65.3525 42.839 64.7068 44.0755 64.6697 44.1345C63.9906 45.1237 63.1333 45.9616 62.1795 46.6851C60.3648 48.0581 58.1678 49.195 55.8373 49.1027C53.9335 49.0289 54.0299 54.6319 55.4699 55.2668C57.2289 56.0419 58.9991 56.7949 60.7582 57.57C62.6954 58.4227 63.2335 52.2844 61.4967 51.5204L61.4781 51.513Z" fill="#617591"/>
</g>
<defs>
<clipPath id="clip0_5_14758">
<rect width="78" height="66" fill="white"/>
</clipPath>
</defs>
</svg>
