<svg width="59" height="85" viewBox="0 0 59 85" fill="none" xmlns="http://www.w3.org/2000/svg">
<g clip-path="url(#clip0_4_14741)">
<path d="M29.8114 73.7246C27.515 72.3735 25.2119 71.0426 22.9156 69.6915L22.245 80.9734C27.5421 81.7571 33.3067 78.6292 36.8968 74.9474C41.4556 70.2724 42.6816 62.4156 39.6741 56.5854C36.0433 49.546 28.7276 50.8904 23.1188 54.6938C15.9454 59.5579 12.0978 66.9419 14.3332 75.65L18.7091 69.8536C15.4644 58.146 10.7905 46.9045 7.39002 35.251C5.50689 28.8128 2.74995 19.7197 8.20965 14.2003C12.7278 9.63344 18.1536 11.9439 23.0443 14.4638C28.4837 17.2674 33.8621 20.152 39.0509 23.4015C41.5707 24.9824 44.0499 26.624 46.4818 28.3399C47.6943 29.1911 48.8932 30.0626 50.0786 30.9476C51.2641 31.8326 52.7543 33.6702 54.0752 34.0417L54.5697 34.4336L54.0142 29.5357C54.0142 29.5357 53.4994 30.6571 53.4046 30.8058C52.8288 31.738 51.9753 32.4879 51.115 33.15C49.2861 34.5552 47.1659 35.582 45.0186 36.4062C38.8544 38.7572 32.0941 39.149 25.5777 39.6895C18.2959 40.2975 11.0817 40.5745 3.77279 40.2772C0.304596 40.1353 0.114929 51.6133 3.77279 51.7619C11.5153 52.0726 19.1561 51.7146 26.8783 51.066C33.9163 50.4715 41.0627 49.796 47.6198 46.9721C53.0456 44.6346 57.1099 40.7163 58.4917 34.8727C59.203 31.8529 59.4604 27.59 57.5299 24.908C55.5993 22.226 51.9956 20.2669 49.3877 18.3821C43 13.7679 36.2736 9.62669 29.3101 5.93133C24.0062 3.12097 17.2121 -1.64179 10.9666 0.567318C-0.11538 4.47886 -0.819859 20.1656 0.473942 29.7654C2.61447 45.5804 10.0792 60.3619 14.3196 75.6567C14.787 77.3524 16.0605 79.5075 17.7878 77.7172C19.5152 75.927 19.2374 71.9614 18.6955 69.8604C18.2891 72.1032 18.3975 72.4478 19.0274 70.9075C19.3119 70.4684 19.6235 70.0495 19.969 69.6577C20.6803 68.793 21.4796 68.0566 22.3466 67.3472C23.742 66.2123 25.2323 65.1719 26.8309 64.3342C28.626 63.3952 30.7394 62.5507 32.8122 62.8615C33.686 62.9898 34.4311 63.2668 35.1356 63.8208C35.5488 64.1653 35.9078 64.5571 36.2126 65.003C36.4971 65.557 36.5242 65.3948 36.3007 64.5031C37.2287 61.2874 35.7046 63.5843 34.8308 64.5166C33.7537 65.6718 32.4261 66.5906 31.0645 67.3743C28.3889 68.9213 25.361 69.9482 22.2382 69.4888C18.7159 68.9686 19.2578 79.4061 21.5676 80.7708C23.8775 82.1354 26.1671 83.4528 28.4634 84.8039C31.5658 86.628 32.907 75.5554 29.8114 73.7314V73.7246Z" fill="white"/>
</g>
<defs>
<clipPath id="clip0_4_14741">
<rect width="59" height="85" fill="white"/>
</clipPath>
</defs>
</svg>
