<svg width="67" height="92" viewBox="0 0 67 92" fill="none" xmlns="http://www.w3.org/2000/svg">
<g clip-path="url(#clip0_4_14738)">
<path d="M25.5678 13.4383C27.6394 12.7086 29.5339 13.1278 31.3283 14.269V1.54531C27.1388 5.34145 23.7041 10.0691 22.934 15.8371C22.1177 22.001 23.7965 29.2517 30.5966 30.8276C36.2955 32.1473 42.9108 28.9334 47.2311 25.3779C53.5769 20.1689 55.2249 12.7785 53.6847 4.87566L48.7097 11.5364C51.228 23.1499 55.3866 34.3054 58.1668 45.8568C60.223 54.3962 63.4035 67.0578 57.4968 74.8441C54.0466 79.3855 49.0717 79.4631 44.4741 76.9634C39.8765 74.4637 35.1942 71.4516 30.7661 68.3697C26.3379 65.2878 22.0638 62.0739 17.728 58.8988C15.3484 57.1521 12.961 55.4209 10.5429 53.7363C8.43274 52.2691 5.86055 50.9805 4.50515 48.7136L5.82975 52.6573L5.66032 51.718L5.36768 56.8028C6.09929 53.3404 13.0688 50.7088 15.9029 49.6996C21.2474 47.7976 27.0079 47.1533 32.6452 46.8893C37.9743 46.6409 43.3189 46.7806 48.6558 46.7884C51.2896 46.7884 53.6693 46.3304 56.2723 46.0975C58.8753 45.8646 61.3781 46.4856 63.9811 46.3149C68.1474 46.0276 67.8933 32.8537 63.9811 33.1177C60.3077 33.3661 56.9115 32.877 53.2303 33.3428C49.3104 33.8396 45.2827 33.5602 41.3243 33.5524C33.6078 33.5291 25.7757 33.6921 18.2825 35.7571C12.3449 37.3951 5.25216 40.1743 1.99458 45.8491C-0.030827 49.3657 -0.5237 53.8062 0.562162 57.7343C1.52481 61.251 4.47435 63.3392 7.31607 65.28C14.0161 69.868 20.4311 74.8441 27.0464 79.5485C32.9763 83.7716 39.8226 89.3377 46.8384 91.5191C53.8541 93.7006 59.4529 88.5847 62.3023 82.9022C65.8525 75.8145 66.7535 67.6322 66.3531 59.7915C65.3673 40.7798 57.6739 23.2741 53.6924 4.87566C53.2534 2.86503 51.6593 0.505062 49.7494 2.50793C47.8395 4.5108 48.2323 9.03666 48.7174 11.5364L48.6019 9.28508L47.9781 10.271C47.4083 10.7601 46.9847 11.4898 46.4379 12.0254C45.4599 12.957 44.297 13.7566 43.1572 14.4863C40.4387 16.2175 37.3737 17.6304 34.1392 17.8788C32.7376 17.9875 31.2743 17.9331 29.9729 17.3664C29.6494 17.2267 28.5712 16.3184 28.3248 16.3262C27.6009 15.5188 27.5547 16.1166 28.1862 18.1272C28.0245 20.3009 28.14 20.8598 28.5404 19.804C29.2258 19.2684 29.8342 17.6614 30.4118 16.9317C31.1588 15.9846 31.9674 15.0841 32.8608 14.2767C35.5177 11.8702 36.2955 3.72673 32.8608 1.55307C29.9883 -0.271244 27.1773 -0.379926 24.0353 0.722428C20.485 1.97228 21.2089 14.9832 25.5678 13.4461V13.4383Z" fill="white"/>
</g>
<defs>
<clipPath id="clip0_4_14738">
<rect width="67" height="92" fill="white"/>
</clipPath>
</defs>
</svg>
